<?xml version="1.0" standalone="no"?>
<!DOCTYPE svg PUBLIC "-//W3C//DTD SVG 20010904//EN"
 "http://www.w3.org/TR/2001/REC-SVG-20010904/DTD/svg10.dtd">
<svg version="1.0" xmlns="http://www.w3.org/2000/svg"
 width="9555.000000pt" height="9555.000000pt" viewBox="0 0 9555.000000 9555.000000"
 preserveAspectRatio="xMidYMid meet">
<metadata>
Created by potrace 1.11, written by Peter Selinger 2001-2013
</metadata>
<g transform="translate(0.000000,9555.000000) scale(0.100000,-0.100000)"
fill="#000000" stroke="none">
<path d="M20277 61543 c-6 -10 -1368 -3752 -1375 -3775 -4 -17 11 -18 221 -18
205 0 225 2 232 18 3 9 67 181 140 382 73 201 136 373 140 383 7 16 60 17 968
15 l960 -3 147 -395 146 -395 228 -3 c125 -1 225 1 223 5 -3 5 -320 852 -705
1883 -385 1031 -704 1883 -707 1893 -7 16 -31 17 -310 17 -167 0 -306 -3 -308
-7z m746 -1513 l413 -1115 -835 -3 c-459 -1 -835 -1 -837 1 -2 2 786 2165 822
2257 5 12 8 11 15 -5 5 -11 195 -522 422 -1135z"/>
<path d="M30148 60813 l-3 -738 -24 50 c-37 75 -132 165 -221 208 -94 46 -236
83 -382 98 -138 15 -454 6 -557 -15 -460 -95 -658 -352 -711 -921 -13 -142
-13 -688 0 -830 16 -166 37 -279 76 -395 46 -137 100 -228 190 -317 59 -58 92
-81 176 -122 173 -83 319 -111 597 -111 429 0 667 88 806 299 22 33 43 61 48
61 4 0 7 -74 7 -165 l0 -165 200 0 200 0 0 1900 0 1900 -200 0 -200 0 -2 -737z
m-435 -731 c211 -58 334 -188 386 -413 34 -142 44 -281 44 -594 0 -574 -52
-784 -227 -917 -116 -87 -251 -112 -571 -105 -246 5 -298 14 -402 64 -142 70
-225 226 -265 498 -18 126 -18 823 1 960 35 264 108 398 255 470 106 52 203
65 476 61 191 -3 237 -6 303 -24z"/>
<path d="M38760 61330 l0 -220 200 0 200 0 0 220 0 220 -200 0 -200 0 0 -220z"/>
<path d="M23480 60434 c-523 -63 -750 -243 -845 -673 -34 -152 -45 -263 -52
-541 -10 -409 19 -765 77 -955 54 -173 162 -318 300 -398 83 -48 245 -100 385
-124 91 -15 166 -18 430 -18 215 0 348 4 405 13 230 36 385 100 496 205 150
141 209 305 221 615 l6 152 -205 0 -205 0 -6 -167 c-7 -250 -46 -348 -166
-420 -98 -59 -168 -68 -506 -68 -338 0 -411 9 -542 70 -231 107 -283 310 -270
1055 6 332 16 459 43 565 48 190 158 297 349 341 102 24 555 31 686 11 230
-35 331 -135 359 -359 5 -45 10 -108 10 -140 l0 -58 200 0 200 0 0 89 c0 124
-16 230 -51 334 -39 118 -70 169 -148 247 -107 106 -256 170 -481 206 -91 15
-604 28 -690 18z"/>
<path d="M26095 60430 c-443 -49 -642 -244 -662 -652 l-6 -118 212 0 211 0 0
78 c0 192 77 289 276 344 74 21 100 22 399 22 273 1 330 -2 389 -17 177 -45
265 -129 313 -294 13 -46 17 -123 20 -380 5 -330 1 -366 -31 -290 -43 105
-198 179 -456 219 -134 21 -677 17 -804 -5 -334 -59 -495 -195 -573 -485 -25
-91 -27 -111 -27 -317 0 -195 3 -229 22 -300 36 -130 85 -220 166 -301 111
-111 249 -168 484 -199 150 -20 569 -20 707 0 231 32 397 118 476 245 13 22
27 40 32 40 4 0 7 -61 7 -135 l0 -135 200 0 201 0 -4 1028 -3 1027 -22 85
c-36 135 -92 240 -170 319 -79 80 -145 119 -267 160 -170 56 -244 63 -645 67
-201 1 -401 -2 -445 -6z m745 -1411 c201 -25 308 -94 363 -237 29 -73 42 -228
29 -329 -28 -212 -139 -327 -367 -380 -69 -16 -125 -18 -415 -18 -357 0 -398
4 -491 51 -130 65 -177 172 -186 419 -11 337 68 455 332 494 87 12 636 13 735
0z"/>
<path d="M32035 60429 c-382 -39 -605 -158 -724 -388 -77 -150 -120 -337 -142
-621 -15 -202 -6 -732 15 -886 71 -507 257 -705 741 -791 150 -27 805 -26 950
1 217 40 335 93 441 200 120 121 163 237 171 469 l5 147 -206 0 -206 0 0 -88
c0 -152 -33 -265 -92 -318 -34 -31 -98 -62 -170 -80 -85 -22 -645 -32 -787
-14 -280 35 -382 129 -427 393 -8 51 -18 190 -21 315 l-6 222 956 0 957 0 0
249 c0 530 -59 780 -226 959 -105 114 -235 175 -454 214 -94 17 -166 21 -400
23 -157 2 -325 -1 -375 -6z m726 -341 c216 -56 288 -201 306 -615 l6 -153
-746 0 -747 0 0 38 c1 152 35 392 71 487 52 140 189 224 415 254 109 15 627 6
695 -11z"/>
<path d="M35156 60424 c-264 -41 -463 -142 -577 -294 -23 -30 -50 -73 -60 -95
l-19 -40 0 208 0 207 -205 0 -205 0 0 -1330 0 -1330 205 0 204 0 3 903 c3 890
4 903 25 978 95 336 328 480 777 479 191 -1 288 -18 386 -67 62 -31 81 -48
112 -93 82 -120 88 -210 88 -1322 l0 -878 200 0 200 0 0 863 c0 520 4 894 10
943 44 347 200 499 564 544 124 16 431 8 503 -13 123 -35 194 -87 242 -176 66
-125 64 -92 68 -1178 l4 -983 199 0 200 0 0 968 c0 1069 -1 1080 -63 1261
-115 336 -398 475 -927 458 -253 -9 -434 -51 -594 -141 -83 -46 -198 -154
-246 -229 l-34 -54 -38 77 c-110 226 -398 352 -798 349 -74 -1 -175 -7 -224
-15z"/>
<path d="M40535 60434 c-444 -47 -637 -202 -690 -553 -8 -53 -15 -124 -15
-158 l0 -63 209 0 208 0 6 93 c7 115 21 157 70 213 51 58 105 89 203 116 74
21 99 22 404 22 305 0 330 -1 405 -22 185 -52 273 -151 305 -344 12 -76 14
-648 2 -648 -5 0 -17 18 -27 40 -50 112 -216 183 -505 216 -177 21 -619 15
-755 -10 -268 -49 -424 -148 -516 -328 -59 -116 -95 -344 -86 -543 23 -472
225 -680 715 -736 151 -17 643 -7 742 16 205 46 323 115 406 239 l34 51 0
-143 0 -142 206 0 205 0 -4 1003 c-3 970 -4 1005 -24 1092 -81 350 -247 500
-638 572 -59 11 -178 15 -450 18 -203 1 -388 1 -410 -1z m710 -1415 c168 -23
260 -69 322 -163 45 -66 63 -133 70 -256 16 -298 -88 -454 -348 -521 -74 -19
-119 -22 -383 -26 -200 -3 -324 -1 -379 7 -253 37 -340 149 -354 454 -7 154 7
251 50 336 50 101 126 146 282 169 87 13 650 13 740 0z"/>
<path d="M38760 59080 l0 -1330 200 0 200 0 0 1330 0 1330 -200 0 -200 0 0
-1330z"/>
<path d="M23025 56053 c-1151 -38 -2095 -388 -2880 -1065 -155 -134 -422 -410
-547 -567 -561 -700 -838 -1483 -838 -2370 0 -981 328 -1800 1035 -2581 184
-203 448 -444 705 -641 576 -442 1456 -991 2825 -1759 992 -557 1694 -972
2055 -1214 509 -342 895 -739 1138 -1171 100 -179 204 -436 252 -624 113 -448
74 -955 -105 -1376 -127 -298 -296 -537 -566 -800 -449 -437 -988 -677 -1729
-771 -280 -35 -838 -29 -1160 12 -967 123 -1898 558 -2554 1194 -288 280 -478
541 -656 905 -216 440 -375 927 -529 1620 -32 145 -111 544 -111 561 0 2 -103
4 -230 4 l-230 0 0 -2620 0 -2620 230 0 229 0 6 38 c37 226 99 445 158 556
109 206 345 298 642 251 225 -35 648 -151 1220 -333 1101 -352 1389 -423 1930
-476 389 -38 959 -45 1290 -16 715 63 1290 215 1850 490 857 421 1602 1152
2014 1979 282 564 418 1198 398 1851 -15 468 -96 865 -264 1290 -164 415 -383
782 -684 1145 -106 128 -395 417 -524 524 -539 448 -1426 993 -3005 1846 -962
520 -1547 864 -2115 1246 -715 480 -1146 863 -1387 1234 -371 569 -407 1286
-98 1908 215 432 628 853 1070 1090 639 344 1482 418 2335 205 384 -95 825
-281 1193 -503 493 -297 926 -716 1222 -1184 360 -569 621 -1355 764 -2306 14
-93 28 -185 31 -202 l6 -33 224 0 225 0 0 2645 0 2645 -224 0 -224 0 -27 -112
c-42 -170 -91 -312 -148 -423 -104 -203 -262 -311 -492 -334 -206 -21 -416 38
-955 269 -877 375 -1575 551 -2345 590 -190 9 -233 10 -420 3z"/>
<path d="M65887 55768 c-69 -161 -1292 -3022 -2717 -6358 -1426 -3336 -2628
-6146 -2673 -6245 -112 -251 -386 -790 -491 -970 -237 -402 -491 -729 -663
-852 -178 -127 -543 -252 -983 -338 -74 -14 -145 -28 -157 -31 l-23 -4 0 -225
0 -225 2410 0 2410 0 0 225 0 225 -22 4 c-13 2 -106 11 -208 20 -864 75 -1275
250 -1455 621 -53 110 -68 180 -67 311 1 176 51 404 152 704 87 260 123 346
707 1707 l538 1253 2918 -3 2918 -2 450 -1070 c604 -1437 670 -1601 767 -1925
192 -637 180 -928 -50 -1202 -123 -145 -297 -242 -557 -309 -189 -49 -544 -98
-708 -99 -100 0 -93 19 -93 -236 l0 -224 3010 0 3010 0 -2 228 -3 227 -100 7
c-515 37 -987 205 -1308 466 -315 256 -677 836 -1056 1692 -45 102 -1280 3049
-2745 6550 l-2663 6365 -210 3 -211 2 -125 -292z m998 -6301 c692 -1648 1256
-3000 1253 -3002 -3 -3 -1157 -4 -2565 -3 l-2559 3 1285 2986 c707 1642 1292
2998 1299 3014 11 23 15 26 22 15 4 -8 574 -1364 1265 -3013z"/>
<path d="M30926 55698 c-4 -14 -177 -3504 -176 -3555 l0 -33 230 0 230 0 4 23
c3 12 8 58 11 102 17 222 74 540 136 760 198 704 654 1272 1219 1521 386 170
876 208 2590 202 l815 -3 3 -5680 c3 -5735 0 -6300 -33 -6645 -46 -480 -118
-729 -263 -911 -173 -218 -408 -360 -727 -439 -198 -49 -323 -60 -742 -67
l-383 -6 0 -224 0 -223 3235 0 3235 0 0 225 0 225 -242 0 c-332 1 -594 15
-746 40 -242 41 -458 122 -629 236 -96 64 -227 188 -268 254 -122 194 -203
573 -235 1100 -6 107 -10 2275 -10 6143 l0 5979 1198 -5 c1228 -5 1286 -7
1567 -48 753 -110 1259 -423 1644 -1014 206 -316 321 -686 420 -1348 16 -103
30 -190 33 -192 3 -3 108 -4 234 -3 l229 3 -85 1798 -85 1797 -6203 0 c-4953
0 -6203 -3 -6206 -12z"/>
<path d="M44500 55480 l0 -230 363 0 c395 0 521 -8 728 -45 302 -54 544 -164
725 -329 108 -98 168 -210 224 -421 50 -188 82 -409 112 -780 16 -203 24
-10235 9 -10805 -25 -911 -87 -1189 -321 -1434 -95 -99 -164 -148 -315 -224
-384 -193 -641 -241 -1277 -242 l-248 0 0 -225 0 -225 5858 0 5857 0 655 1906
c360 1048 656 1912 658 1920 3 12 -34 14 -241 14 l-245 0 -121 -225 c-607
-1127 -1177 -1855 -1766 -2254 -199 -135 -417 -242 -625 -309 -280 -89 -702
-146 -1265 -172 -294 -13 -3373 -13 -3525 0 -356 31 -517 93 -672 258 -136
145 -171 275 -198 727 -6 105 -10 1220 -10 2908 l0 2737 1808 0 c1117 0 1859
-4 1942 -10 651 -49 1037 -187 1343 -479 214 -205 294 -359 387 -743 46 -192
98 -465 140 -743 17 -110 33 -217 36 -237 l6 -38 229 0 229 0 -2 2658 -3 2657
-227 3 -226 2 -7 -97 c-42 -626 -177 -1111 -404 -1453 -78 -118 -243 -287
-344 -352 -241 -155 -616 -250 -1132 -288 -88 -6 -819 -10 -1957 -10 l-1818 0
0 2971 0 2970 2338 -4 c1647 -3 2377 -8 2472 -16 620 -53 834 -104 1124 -268
217 -123 441 -327 569 -519 190 -285 360 -787 506 -1495 l38 -184 239 -3 240
-2 -3 57 c-8 124 -163 3241 -163 3271 l0 32 -5860 0 -5860 0 0 -230z"/>
<path d="M74910 55482 l0 -229 228 -6 c740 -21 1151 -148 1473 -455 103 -98
159 -172 217 -287 102 -205 165 -477 204 -875 19 -198 19 -10925 0 -11140 -38
-424 -92 -688 -179 -867 -41 -84 -144 -212 -234 -291 -214 -187 -501 -301
-859 -342 -52 -6 -265 -13 -472 -17 l-378 -6 0 -224 0 -223 2660 0 2660 0 0
223 0 224 -387 6 c-214 4 -431 11 -483 17 -303 35 -558 118 -755 248 -92 61
-228 192 -276 266 -99 151 -173 442 -213 836 -36 345 -37 554 -34 5733 l3
5097 2905 -6325 2905 -6325 201 0 201 0 2899 6324 2899 6325 3 -5112 c2 -3565
0 -5181 -8 -5342 -28 -603 -99 -961 -229 -1162 -190 -293 -510 -479 -945 -548
-131 -21 -403 -34 -708 -35 l-248 0 0 -225 0 -225 3240 0 3240 0 0 225 0 225
-237 0 c-615 1 -894 38 -1173 159 -147 63 -252 135 -370 251 -87 86 -114 120
-147 185 -119 234 -186 596 -213 1140 -14 278 -14 10551 0 10826 30 606 107
971 246 1165 220 310 590 496 1078 543 60 6 268 11 463 11 l353 0 0 230 0 230
-2167 -2 -2168 -3 -2687 -5890 c-1478 -3239 -2690 -5898 -2695 -5907 -6 -13
-738 1557 -2748 5892 l-2740 5910 -2162 0 -2163 0 0 -228z"/>
<path d="M8444 55000 c-810 -62 -1501 -626 -1699 -1385 -81 -312 -69 -691 31
-990 114 -341 323 -639 608 -865 57 -46 109 -94 116 -108 6 -14 35 -109 65
-211 204 -709 264 -1401 174 -1995 -10 -71 -19 -130 -19 -131 0 -2 -39 -25
-87 -51 -338 -190 -606 -476 -772 -824 -129 -272 -177 -506 -168 -815 7 -260
58 -476 166 -700 101 -212 216 -370 393 -540 250 -241 537 -398 883 -484 276
-68 646 -69 929 -2 397 95 769 322 1023 624 705 840 521 2058 -402 2670 -115
76 -314 174 -444 218 l-102 34 -14 50 c-25 87 -53 225 -76 375 -31 196 -34
657 -6 844 35 234 84 432 154 627 l34 96 72 28 c119 46 336 161 432 230 176
126 343 294 456 457 33 48 68 92 77 97 40 21 339 116 482 152 680 173 1291
180 1831 19 l68 -21 37 -69 c88 -169 241 -361 394 -497 878 -781 2271 -612
2915 352 310 463 386 1027 210 1553 -137 409 -429 765 -820 998 -599 357
-1391 358 -1995 2 -245 -144 -472 -357 -614 -576 -40 -62 -44 -65 -171 -127
-717 -352 -1534 -347 -2250 13 -99 49 -101 51 -159 136 -248 367 -657 648
-1107 762 -191 48 -441 69 -645 54z"/>
<path d="M11500 51943 c-221 -24 -484 -105 -689 -214 -186 -99 -327 -206 -482
-365 -107 -111 -167 -186 -238 -301 -173 -280 -256 -551 -268 -883 -22 -622
282 -1205 817 -1562 125 -84 328 -184 462 -228 l97 -31 25 -107 c66 -279 90
-482 90 -767 -1 -230 -13 -372 -50 -560 -48 -243 -145 -552 -179 -566 -324
-131 -496 -236 -693 -424 -111 -105 -191 -199 -263 -305 -24 -36 -48 -68 -54
-72 -5 -4 -91 -34 -190 -67 -293 -97 -588 -163 -905 -203 -166 -21 -675 -18
-820 5 -252 40 -464 97 -484 131 -7 12 -32 56 -56 98 -103 185 -299 405 -482
544 -242 182 -492 295 -800 360 -219 46 -557 45 -788 -2 -628 -128 -1147 -552
-1384 -1131 -170 -415 -170 -911 0 -1326 258 -630 845 -1070 1544 -1157 121
-15 388 -12 509 5 346 49 644 172 919 379 123 94 307 283 397 411 64 91 77
104 140 137 225 120 549 222 840 265 146 21 517 24 640 5 324 -51 566 -127
831 -260 76 -38 104 -58 118 -83 68 -118 258 -330 396 -442 275 -222 611 -365
968 -412 131 -17 380 -20 502 -4 660 81 1221 476 1500 1053 193 401 227 872
94 1299 -111 354 -358 696 -661 917 l-61 45 -41 130 c-221 713 -298 1464 -210
2070 11 77 22 147 24 155 3 9 47 40 99 69 459 260 794 715 896 1219 207 1025
-514 2008 -1591 2166 -98 15 -416 20 -519 9z"/>
<path d="M2775 49163 c-200 -23 -339 -55 -475 -107 -429 -166 -775 -479 -989
-896 -385 -749 -254 -1660 324 -2259 98 -102 249 -227 332 -276 74 -43 230
-426 297 -725 46 -205 59 -359 53 -610 -9 -396 -83 -691 -263 -1055 -52 -104
-59 -112 -117 -151 -231 -153 -448 -389 -595 -646 -316 -558 -333 -1268 -43
-1847 151 -301 364 -544 636 -726 433 -290 959 -377 1460 -240 388 105 760
366 990 692 28 40 37 45 150 82 312 102 698 184 1080 228 112 13 232 17 475
17 322 0 454 -9 643 -46 55 -10 59 -13 81 -57 40 -77 159 -253 227 -332 551
-646 1429 -831 2175 -456 465 234 826 683 963 1197 180 680 4 1386 -468 1874
-326 336 -714 521 -1166 555 -828 63 -1607 -478 -1866 -1297 -26 -82 -8 -72
-209 -118 -247 -56 -364 -68 -680 -68 -253 0 -314 3 -430 21 -191 30 -353 68
-509 119 -203 66 -187 55 -230 165 -98 249 -252 479 -447 670 -90 87 -221 192
-293 235 -29 17 -67 108 -131 318 -125 410 -184 796 -184 1206 0 324 28 540
102 793 l27 91 113 67 c153 91 248 163 366 278 477 464 681 1147 541 1811
-149 706 -681 1274 -1350 1444 -179 45 -441 67 -590 49z"/>
<path d="M82335 38789 c-678 -28 -977 -173 -1085 -524 -37 -123 -51 -247 -57
-532 l-6 -273 221 0 222 0 -1 258 c0 283 11 376 56 468 91 185 304 232 1005
221 240 -3 348 -9 412 -21 242 -45 343 -159 382 -427 32 -227 28 -610 -9 -782
-37 -176 -120 -272 -280 -325 -88 -29 -214 -48 -555 -82 -630 -63 -844 -106
-1045 -208 -156 -80 -266 -210 -325 -384 -66 -193 -80 -337 -80 -840 l0 -378
1370 0 1370 0 0 190 0 190 -1150 0 -1150 0 0 244 c0 274 11 359 59 462 73 156
239 241 566 288 61 9 236 27 390 41 302 28 424 44 570 76 373 80 570 246 660
554 50 172 59 264 59 590 0 326 -9 417 -59 590 -101 348 -318 516 -752 580
-104 16 -439 36 -548 33 -33 0 -141 -5 -240 -9z"/>
<path d="M85745 38790 c-890 -37 -1173 -262 -1271 -1013 -21 -159 -32 -1364
-15 -1629 31 -483 122 -753 312 -934 152 -144 357 -219 712 -261 182 -22 956
-25 1137 -5 269 29 420 66 565 137 240 117 382 324 449 651 47 229 49 266 53
1019 5 755 -1 938 -37 1150 -27 158 -63 275 -121 392 -149 302 -426 442 -954
482 -203 15 -600 20 -830 11z m830 -391 c463 -34 611 -172 666 -619 16 -135
24 -1345 10 -1630 -15 -312 -36 -423 -109 -563 -59 -114 -160 -187 -315 -226
-141 -37 -283 -45 -757 -45 -308 0 -492 4 -570 13 -326 37 -463 127 -542 357
-62 180 -63 199 -63 1174 0 809 2 894 18 993 65 386 212 513 632 546 150 12
870 12 1030 0z"/>
<path d="M89325 38789 c-677 -28 -979 -174 -1084 -524 -37 -123 -52 -258 -58
-537 l-6 -268 221 0 220 0 5 293 c3 224 8 304 20 344 79 269 256 322 1037 310
361 -5 460 -17 567 -66 112 -53 185 -156 217 -311 29 -135 41 -410 28 -613
-16 -258 -47 -367 -129 -458 -96 -106 -214 -138 -683 -184 -664 -66 -902 -112
-1099 -215 -240 -126 -358 -352 -391 -747 -5 -65 -10 -283 -10 -485 l0 -368
1370 0 1370 0 0 190 0 190 -1151 0 -1151 0 5 278 c4 238 7 286 24 343 54 181
167 276 395 334 127 32 262 50 597 81 533 48 754 99 929 211 137 87 228 210
286 383 60 180 71 282 71 630 0 268 -3 319 -22 425 -84 467 -298 667 -790 740
-104 16 -439 36 -548 33 -33 0 -141 -5 -240 -9z"/>
<path d="M92745 38789 c-222 -8 -350 -21 -495 -50 -548 -110 -756 -416 -800
-1179 -13 -214 -13 -1176 0 -1395 46 -810 277 -1108 927 -1199 289 -40 991
-47 1290 -12 625 73 876 296 973 861 37 220 42 358 37 1140 -3 633 -6 768 -21
865 -32 222 -88 402 -164 535 -54 92 -191 222 -287 272 -206 106 -417 145
-865 163 -258 10 -315 10 -595 -1z m940 -399 c332 -47 465 -169 526 -482 33
-172 41 -440 36 -1190 -5 -731 -9 -813 -52 -978 -39 -152 -132 -278 -245 -333
-154 -75 -311 -91 -890 -91 -475 0 -616 8 -758 45 -269 69 -379 246 -413 664
-7 94 -9 400 -6 940 4 666 7 815 20 890 67 386 212 510 642 545 144 12 1043 4
1140 -10z"/>
<path d="M54910 36860 l0 -1900 215 0 215 0 0 1720 c0 946 3 1720 8 1720 4 0
486 -774 1071 -1720 l1065 -1720 353 0 353 0 0 1900 0 1900 -215 0 -215 0 0
-1737 c-1 -1388 -3 -1735 -13 -1722 -7 9 -487 791 -1067 1738 l-1055 1721
-357 0 -358 0 0 -1900z"/>
<path d="M58870 38540 l0 -220 205 0 205 0 0 220 0 220 -205 0 -205 0 0 -220z"/>
<path d="M60825 37650 c-525 -32 -790 -220 -896 -633 -41 -162 -51 -270 -56
-629 -7 -492 13 -725 81 -930 101 -301 296 -440 710 -505 159 -25 642 -25 804
0 329 52 521 166 621 369 66 133 83 214 88 426 l5 182 -199 0 -200 0 -6 -157
c-9 -225 -39 -326 -119 -398 -102 -92 -192 -110 -558 -110 -254 1 -296 3 -384
23 -280 61 -384 193 -416 527 -13 143 -13 776 1 930 5 66 17 151 25 190 30
143 103 254 203 308 122 67 371 95 683 78 238 -14 318 -35 398 -107 79 -71
111 -162 119 -339 l6 -120 200 0 200 0 3 50 c4 65 -14 232 -34 315 -9 36 -34
103 -56 149 -94 198 -285 313 -598 361 -65 10 -447 32 -490 28 -8 0 -69 -4
-135 -8z"/>
<path d="M63490 37650 c-435 -26 -637 -142 -731 -421 -28 -82 -33 -112 -37
-227 l-5 -132 209 2 209 3 6 105 c6 122 23 165 90 224 104 94 228 119 589 119
271 -1 363 -11 472 -53 115 -43 202 -155 227 -294 13 -72 15 -666 2 -666 -5 0
-14 13 -21 29 -17 41 -76 99 -130 126 -168 85 -508 126 -881 106 -411 -23
-611 -103 -734 -296 -93 -148 -139 -410 -116 -660 19 -200 73 -343 167 -444
74 -81 151 -129 264 -168 141 -48 255 -64 511 -70 527 -13 783 60 918 264 l31
46 0 -141 0 -142 205 0 206 0 -4 1018 c-3 993 -4 1019 -24 1103 -85 343 -278
501 -678 554 -135 17 -562 26 -745 15z m684 -1425 c248 -44 345 -173 346 -457
0 -130 -13 -195 -53 -271 -71 -136 -202 -202 -448 -228 -158 -17 -583 -7 -675
15 -134 32 -212 99 -253 217 -26 73 -44 253 -36 354 22 269 119 361 406 385
161 13 607 4 713 -15z"/>
<path d="M66625 37653 c-308 -19 -518 -118 -637 -299 -23 -35 -43 -62 -44 -61
-2 1 1 59 6 127 5 69 10 144 10 168 l0 42 -195 0 -195 0 0 -1335 0 -1335 200
0 199 0 4 938 c3 815 5 945 19 1002 74 303 248 421 618 423 253 1 363 -52 422
-203 18 -47 22 -82 26 -232 l4 -178 196 0 195 0 -6 173 c-8 253 -39 381 -124
509 -109 166 -286 247 -568 261 -44 2 -102 2 -130 0z"/>
<path d="M68610 37649 c-527 -30 -741 -217 -767 -670 l-6 -109 210 0 210 0 6
101 c8 154 50 225 167 284 76 38 160 55 336 66 192 12 483 -2 579 -27 79 -21
169 -69 205 -111 45 -51 80 -127 96 -210 17 -88 21 -663 4 -663 -5 0 -17 16
-26 35 -26 55 -97 111 -183 144 -159 61 -340 84 -661 84 -351 -1 -546 -33
-705 -117 -77 -40 -171 -134 -212 -211 -101 -192 -132 -548 -69 -797 101 -396
390 -533 1091 -515 246 7 335 19 466 62 125 42 228 123 296 231 9 15 12 -9 12
-123 l1 -143 205 0 205 0 0 923 c0 537 -4 970 -10 1036 -32 357 -170 562 -441
657 -202 71 -579 98 -1009 73z m692 -1423 c243 -45 348 -184 348 -467 0 -216
-73 -349 -233 -424 -130 -61 -201 -70 -562 -70 -350 0 -392 5 -499 63 -126 68
-186 245 -173 507 15 287 109 380 415 405 143 12 612 3 704 -14z"/>
<path d="M71565 37650 c-394 -27 -631 -157 -760 -415 -113 -226 -152 -515
-142 -1035 6 -305 20 -437 62 -607 95 -377 299 -570 679 -641 129 -24 522 -23
656 1 247 45 402 134 478 274 l31 58 1 -365 c0 -403 -6 -456 -60 -566 -55
-112 -162 -185 -325 -221 -116 -26 -639 -26 -732 -1 -122 34 -204 93 -248 178
-24 46 -55 176 -55 230 0 26 -3 62 -6 79 l-6 31 -201 0 -200 0 6 -142 c3 -85
12 -170 23 -208 103 -393 410 -535 1114 -517 454 12 706 90 890 276 89 90 147
196 182 336 l23 90 0 1570 0 1570 -200 0 -200 0 -3 -169 -2 -168 -39 58 c-48
75 -140 160 -217 201 -156 83 -449 123 -749 103z m517 -346 c221 -36 350 -131
418 -307 58 -150 65 -227 65 -712 0 -417 -1 -445 -22 -540 -76 -344 -288 -484
-733 -485 -364 0 -562 82 -655 273 -63 130 -67 172 -72 657 -5 462 3 621 37
756 61 239 218 348 535 374 125 10 313 3 427 -16z"/>
<path d="M77290 37649 c-216 -12 -386 -54 -505 -123 -60 -35 -158 -145 -189
-211 -42 -88 -67 -199 -73 -327 l-6 -118 210 0 211 0 4 99 c3 85 8 106 33 157
51 99 153 158 320 185 112 18 551 15 665 -5 232 -40 338 -146 369 -370 14 -99
15 -626 1 -626 -5 0 -19 18 -30 39 -76 150 -349 224 -830 224 -353 0 -528 -27
-690 -105 -230 -111 -340 -344 -340 -720 0 -369 113 -597 354 -713 164 -78
315 -100 686 -100 314 0 391 9 535 56 137 46 217 101 282 196 l38 56 3 -142 3
-141 199 0 200 0 0 984 c0 644 -4 1012 -11 1063 -13 97 -60 241 -101 308 -41
68 -131 159 -198 200 -75 45 -205 89 -324 110 -182 31 -526 41 -816 24z m692
-1423 c232 -43 328 -158 345 -416 15 -238 -61 -396 -230 -475 -129 -61 -201
-70 -557 -70 -340 0 -390 5 -488 53 -134 65 -191 203 -191 462 -1 182 30 290
101 356 100 94 230 115 673 108 170 -2 298 -9 347 -18z"/>
<path d="M58877 37623 c-4 -3 -7 -604 -7 -1335 l0 -1328 205 0 205 0 0 1335 0
1335 -198 0 c-109 0 -202 -3 -205 -7z"/>
<path d="M73640 36693 c0 -984 2 -1039 46 -1211 34 -137 83 -230 164 -315 149
-157 334 -222 670 -234 270 -10 494 26 644 104 84 44 187 143 234 223 l32 55
0 -177 0 -178 205 0 205 0 0 1335 0 1335 -200 0 -200 0 0 -832 c0 -830 -6
-1005 -36 -1123 -54 -215 -185 -337 -414 -386 -134 -28 -470 -38 -592 -16
-199 35 -291 117 -335 303 -15 61 -17 183 -20 1062 l-4 992 -200 0 -199 0 0
-937z"/>
</g>
</svg>
