<?xml version="1.0" encoding="utf-8"?>
<!-- Generator: Adobe Illustrator 23.0.5, SVG Export Plug-In . SVG Version: 6.00 Build 0)  -->
<svg version="1.1" id="Layer_1" xmlns="http://www.w3.org/2000/svg" xmlns:xlink="http://www.w3.org/1999/xlink" x="0px" y="0px"
	 viewBox="0 0 2745 888" style="enable-background:new 0 0 2745 888;" xml:space="preserve">
<style type="text/css">
	.st0{fill:#34A7A2;stroke:#000000;stroke-width:0.25;stroke-miterlimit:10;}
	.st1{fill:#97C373;stroke:#000000;stroke-width:0.25;stroke-miterlimit:10;}
	.st2{fill:#71963D;}
	.st3{fill:#268CB5;}
	.st4{fill:#E06F18;}
</style>
<g>
	<g>
		<path class="st0" d="M608.37,669.39c-27.79-12.12-48.91-28.09-63.38-47.92c-14.47-19.82-22.16-41.15-23.08-64.01
			c0-3.73,1.38-7,4.13-9.79c2.76-2.8,6.2-4.2,10.33-4.2h33.76c8.27,0,14,4.67,17.22,13.99c4.13,19.59,15.95,36.5,35.48,50.72
			c19.52,14.23,47.42,21.34,83.7,21.34c39.03,0,68.2-7,87.49-20.99c19.29-13.99,28.93-33.34,28.93-58.06
			c0-15.85-4.71-28.91-14.12-39.18c-9.42-10.25-23.42-19.24-42.02-26.93s-46.5-17.14-83.7-28.33
			c-35.37-10.25-63.5-21.22-84.39-32.88c-20.9-11.65-36.63-25.99-47.19-43.02c-10.57-17.02-15.85-38.59-15.85-64.71
			c0-25.18,6.65-47.68,19.98-67.51c13.31-19.82,32.6-35.44,57.87-46.87c25.25-11.42,55.11-17.14,89.56-17.14
			c35.82,0,66.48,6.42,91.97,19.24c25.49,12.83,44.89,28.92,58.21,48.27c13.32,19.36,20.43,38.83,21.36,58.41
			c0,4.2-1.38,7.7-4.13,10.49c-2.76,2.8-6.2,4.2-10.33,4.2h-34.45c-3.68,0-7.13-1.16-10.33-3.5c-3.22-2.33-5.51-5.83-6.89-10.49
			c-2.76-20.05-13.78-36.61-33.07-49.67c-19.29-13.05-43.4-19.59-72.33-19.59c-31.24,0-56.04,6.19-74.4,18.54
			c-18.37,12.36-27.56,30.67-27.56,54.92c0,16.33,4.24,29.62,12.74,39.88c8.49,10.26,21.58,19.36,39.27,27.28
			c17.67,7.94,43.51,17.03,77.5,27.28c39.03,11.19,69.69,22.39,91.97,33.58c22.27,11.19,38.92,25.08,49.95,41.62
			c11.02,16.56,16.53,37.9,16.53,64.01c0,43.84-16.43,78-49.26,102.49c-32.84,24.48-77.28,36.73-133.3,36.73
			C668.88,687.58,636.15,681.51,608.37,669.39z"/>
		<path class="st0" d="M1084.4,676.03c-2.99-3.03-4.48-6.88-4.48-11.54V251.04H946.97c-4.6,0-8.39-1.51-11.37-4.55
			c-2.99-3.03-4.48-6.88-4.48-11.54v-27.28c0-5.13,1.49-9.2,4.48-12.24c2.98-3.03,6.77-4.55,11.37-4.55h330.67
			c5.05,0,8.96,1.52,11.71,4.55c2.76,3.04,4.13,7.12,4.13,12.24v27.28c0,4.67-1.5,8.51-4.48,11.54c-2.99,3.04-6.78,4.55-11.37,4.55
			h-132.27v413.44c0,4.67-1.61,8.51-4.82,11.54c-3.22,3.04-7.13,4.55-11.71,4.55h-33.07
			C1091.18,680.58,1087.39,679.07,1084.4,676.03z"/>
		<path class="st0" d="M1376.15,676.03c-2.76-3.03-4.13-6.88-4.13-11.54V207.67c0-5.13,1.38-9.2,4.13-12.24
			c2.76-3.03,6.43-4.55,11.02-4.55h283.14c5.05,0,9.06,1.52,12.05,4.55c2.98,3.04,4.48,7.12,4.48,12.24v25.18
			c0,4.67-1.5,8.39-4.48,11.19c-2.99,2.8-7.01,4.2-12.05,4.2H1435.4v156h219.76c5.05,0,9.06,1.52,12.05,4.55
			c2.98,3.04,4.48,7.12,4.48,12.24v23.79c0,4.67-1.5,8.51-4.48,11.54c-2.99,3.04-7.01,4.55-12.05,4.55H1435.4v161.6h240.43
			c5.05,0,9.06,1.52,12.06,4.55c2.98,3.04,4.48,7.12,4.48,12.24v25.18c0,4.67-1.62,8.51-4.82,11.54c-3.22,3.04-7.13,4.55-11.71,4.55
			h-288.65C1382.58,680.58,1378.91,679.07,1376.15,676.03z"/>
		<path class="st0" d="M1746.09,676.38c-2.75-2.8-4.13-6.06-4.13-9.79l1.38-7.7l170.85-452.62c3.67-10.25,11.02-15.39,22.04-15.39
			h44.09c11.02,0,18.36,5.14,22.04,15.39l170.85,452.62l1.38,7.7c0,3.74-1.5,7-4.48,9.79c-2.99,2.8-6.32,4.2-9.99,4.2h-32.38
			c-4.6,0-8.39-1.28-11.37-3.85c-2.99-2.56-4.94-5.25-5.86-8.04l-38.58-100.74h-228.03l-37.89,100.74
			c-3.68,7.94-9.42,11.89-17.22,11.89h-33.07C1752.06,680.58,1748.85,679.18,1746.09,676.38z M1863.9,509.88h188.76l-94.38-251.14
			L1863.9,509.88z"/>
		<path class="st0" d="M2253.47,676.03c-2.99-3.03-4.48-6.88-4.48-11.54V207.67c0-5.13,1.38-9.2,4.13-12.24
			c2.76-3.03,6.65-4.55,11.71-4.55h32.38c8.27,0,14,3.5,17.22,10.49l146.74,286.12l148.11-286.12c3.67-7,9.18-10.49,16.53-10.49
			h32.38c5.05,0,8.96,1.52,11.71,4.55c2.76,3.04,4.13,7.12,4.13,12.24v456.82c0,4.67-1.5,8.51-4.48,11.54
			c-2.99,3.04-6.78,4.55-11.37,4.55h-31.69c-4.6,0-8.27-1.51-11.02-4.55c-2.75-3.03-4.13-6.88-4.13-11.54V316.8l-117.8,231.56
			c-4.6,9.79-11.95,14.69-22.04,14.69h-20.67c-9.64,0-17-4.9-22.04-14.69L2311.68,316.8v347.68c0,4.67-1.5,8.51-4.48,11.54
			c-2.99,3.04-6.78,4.55-11.37,4.55h-31C2260.24,680.58,2256.45,679.07,2253.47,676.03z"/>
	</g>
	<g>
		<path class="st1" d="M543.84,146.38c-0.69-0.7-1.03-1.51-1.03-2.45l0.34-1.92l42.71-113.15c0.92-2.56,2.76-3.85,5.51-3.85h11.02
			c2.76,0,4.59,1.28,5.51,3.85l42.71,113.15l0.34,1.92c0,0.93-0.37,1.75-1.12,2.45c-0.75,0.7-1.58,1.05-2.5,1.05h-8.09
			c-1.15,0-2.1-0.32-2.84-0.96c-0.75-0.64-1.24-1.31-1.46-2.01l-9.64-25.18H568.3l-9.47,25.18c-0.92,1.98-2.35,2.97-4.31,2.97h-8.27
			C545.33,147.43,544.53,147.08,543.84,146.38z M573.29,104.76h47.19l-23.6-62.79L573.29,104.76z"/>
		<path class="st1" d="M673.36,138.6c-6.89-7.05-10.51-16.93-10.85-29.64l-0.17-7l0.17-7c0.34-12.71,3.96-22.59,10.85-29.64
			c6.89-7.05,16.47-10.58,28.76-10.58c8.27,0,15.24,1.49,20.93,4.46s9.93,6.68,12.74,11.11c2.81,4.43,4.33,8.86,4.56,13.29
			c0.11,1.05-0.26,1.98-1.12,2.8c-0.86,0.82-1.81,1.22-2.84,1.22h-7.58c-1.15,0-2.01-0.26-2.58-0.79c-0.58-0.52-1.15-1.49-1.72-2.89
			c-2.07-5.71-4.91-9.76-8.52-12.15c-3.62-2.39-8.18-3.59-13.69-3.59c-7.23,0-12.98,2.27-17.22,6.82
			c-4.25,4.55-6.54,11.49-6.89,20.81l-0.17,6.12l0.17,6.12c0.34,9.33,2.64,16.26,6.89,20.81c4.25,4.55,9.99,6.82,17.22,6.82
			c5.62,0,10.22-1.19,13.78-3.59c3.56-2.39,6.37-6.44,8.44-12.15c0.57-1.4,1.15-2.36,1.72-2.89c0.57-0.52,1.43-0.79,2.58-0.79h7.58
			c1.03,0,1.98,0.41,2.84,1.22c0.86,0.82,1.23,1.75,1.12,2.8c-0.23,4.31-1.75,8.69-4.56,13.12c-2.81,4.43-7.06,8.16-12.74,11.19
			c-5.68,3.03-12.66,4.55-20.93,4.55C689.83,149.18,680.25,145.65,673.36,138.6z"/>
		<path class="st1" d="M770.23,145.68c-4.77-2.33-8.55-5.51-11.37-9.53c-2.81-4.02-4.22-8.48-4.22-13.38c0-7.7,3.1-13.99,9.3-18.89
			s14.64-8.16,25.32-9.79l25.83-3.67v-5.07c0-12.01-6.83-18.01-20.5-18.01c-5.28,0-9.53,1.08-12.74,3.24
			c-3.22,2.16-5.57,4.69-7.06,7.61c-0.46,1.17-0.95,1.95-1.46,2.36c-0.52,0.41-1.23,0.61-2.15,0.61h-6.72
			c-1.03,0-1.92-0.38-2.67-1.14c-0.75-0.76-1.12-1.66-1.12-2.71c0-2.68,1.23-5.8,3.7-9.36c2.47-3.56,6.29-6.65,11.45-9.27
			c5.17-2.62,11.48-3.94,18.94-3.94c12.86,0,22.07,3.03,27.64,9.09c5.57,6.06,8.35,13.64,8.35,22.74v56.84
			c0,1.17-0.37,2.13-1.12,2.89c-0.75,0.76-1.7,1.14-2.84,1.14h-7.58c-1.15,0-2.07-0.38-2.76-1.14c-0.69-0.76-1.03-1.72-1.03-2.89
			v-7.7c-2.53,3.85-6.2,7.06-11.02,9.62c-4.82,2.56-11.02,3.85-18.6,3.85C780.19,149.18,775,148.01,770.23,145.68z M807.86,128.89
			c4.82-5.01,7.23-12.3,7.23-21.86v-4.9l-20.15,2.97c-8.27,1.17-14.53,3.15-18.77,5.95c-4.25,2.8-6.37,6.3-6.37,10.49
			c0,4.78,1.92,8.45,5.77,11.02c3.85,2.57,8.41,3.85,13.69,3.85C796.84,136.41,803.04,133.91,807.86,128.89z"/>
		<path class="st1" d="M861.34,137.29c-6.03-7.93-9.27-17.95-9.73-30.08l-0.17-5.25l0.17-5.25c0.46-12.01,3.73-22.01,9.82-29.99
			c6.08-7.98,15.1-11.98,27.04-11.98c11.94,0,21.24,4.31,27.9,12.94v-40.4c0-1.16,0.37-2.13,1.12-2.89
			c0.75-0.76,1.69-1.14,2.84-1.14h7.75c1.15,0,2.09,0.38,2.84,1.14c0.75,0.76,1.12,1.72,1.12,2.89v116.13
			c0,1.17-0.37,2.13-1.12,2.89c-0.75,0.76-1.7,1.14-2.84,1.14h-7.41c-1.15,0-2.07-0.38-2.76-1.14c-0.69-0.76-1.03-1.72-1.03-2.89
			v-7.52c-6.54,8.86-16.02,13.29-28.42,13.29C876.41,149.18,867.37,145.22,861.34,137.29z M909.82,127.41
			c4.02-5.42,6.2-11.86,6.54-19.33c0.11-1.28,0.17-3.5,0.17-6.65c0-3.26-0.06-5.54-0.17-6.82c-0.23-7.11-2.44-13.26-6.63-18.45
			c-4.19-5.19-10.19-7.78-18-7.78c-8.27,0-14.29,2.62-18.08,7.87c-3.79,5.25-5.86,12.13-6.2,20.64l-0.17,5.07
			c0,22.39,8.15,33.58,24.46,33.58C899.77,135.54,905.8,132.83,909.82,127.41z"/>
		<path class="st1" d="M965.45,138.07c-7-7.4-10.85-17.52-11.54-30.34l-0.17-5.95l0.17-5.77c0.69-12.59,4.53-22.62,11.54-30.08
			c7-7.46,16.36-11.19,28.07-11.19c12.63,0,22.42,4.08,29.36,12.24c6.95,8.16,10.42,19.24,10.42,33.23v3.15
			c0,1.17-0.37,2.13-1.12,2.89c-0.75,0.76-1.7,1.14-2.84,1.14h-59.76v1.57c0.34,7.58,2.64,14.05,6.89,19.41
			c4.25,5.36,9.87,8.04,16.88,8.04c5.4,0,9.79-1.08,13.18-3.24c3.39-2.16,5.94-4.4,7.66-6.73c1.03-1.4,1.83-2.24,2.41-2.54
			c0.57-0.29,1.55-0.44,2.93-0.44h7.58c1.03,0,1.92,0.29,2.67,0.87c0.75,0.58,1.12,1.34,1.12,2.27c0,2.57-1.55,5.66-4.65,9.27
			c-3.1,3.62-7.49,6.73-13.18,9.36c-5.68,2.62-12.2,3.94-19.55,3.94C981.81,149.18,972.45,145.48,965.45,138.07z M1017.63,95.49
			v-0.52c0-8.16-2.18-14.81-6.54-19.94c-4.37-5.13-10.22-7.7-17.57-7.7c-7.46,0-13.32,2.57-17.57,7.7
			c-4.25,5.13-6.37,11.78-6.37,19.94v0.52H1017.63z"/>
		<path class="st1" d="M1055.43,146.29c-0.75-0.76-1.12-1.72-1.12-2.89v-82.9c0-1.16,0.37-2.13,1.12-2.89
			c0.75-0.76,1.69-1.14,2.84-1.14h7.23c1.15,0,2.07,0.38,2.76,1.14c0.69,0.76,1.03,1.72,1.03,2.89v5.95
			c6.2-7.81,14.58-11.72,25.15-11.72c12.63,0,21.58,5.36,26.87,16.09c2.76-4.9,6.69-8.8,11.8-11.72c5.11-2.91,10.82-4.37,17.14-4.37
			c9.41,0,17.11,3.27,23.08,9.79c5.97,6.53,8.96,15.98,8.96,28.33v50.54c0,1.17-0.37,2.13-1.12,2.89c-0.75,0.76-1.7,1.14-2.84,1.14
			h-7.41c-1.15,0-2.1-0.38-2.84-1.14c-0.75-0.76-1.12-1.72-1.12-2.89V94.44c0-9.33-1.89-16-5.68-20.02
			c-3.79-4.02-8.78-6.03-14.98-6.03c-5.51,0-10.25,2.07-14.21,6.21c-3.96,4.14-5.94,10.76-5.94,19.85v48.97
			c0,1.17-0.37,2.13-1.12,2.89c-0.75,0.76-1.7,1.14-2.84,1.14h-7.58c-1.15,0-2.1-0.38-2.84-1.14c-0.75-0.76-1.12-1.72-1.12-2.89
			V94.44c0-9.21-1.98-15.85-5.94-19.94c-3.96-4.08-8.87-6.12-14.73-6.12c-5.51,0-10.25,2.04-14.21,6.12
			c-3.96,4.08-5.94,10.67-5.94,19.76v49.14c0,1.17-0.37,2.13-1.12,2.89c-0.75,0.76-1.7,1.14-2.84,1.14h-7.58
			C1057.13,147.43,1056.18,147.05,1055.43,146.29z"/>
		<path class="st1" d="M1206.99,38.21c-0.75-0.76-1.12-1.72-1.12-2.89v-9.09c0-1.16,0.37-2.16,1.12-2.97
			c0.75-0.81,1.69-1.22,2.84-1.22h10.16c1.15,0,2.12,0.41,2.93,1.22c0.8,0.82,1.21,1.81,1.21,2.97v9.09c0,1.17-0.4,2.13-1.21,2.89
			c-0.8,0.76-1.78,1.14-2.93,1.14h-10.16C1208.68,39.35,1207.74,38.97,1206.99,38.21z M1208.37,146.29
			c-0.75-0.76-1.12-1.72-1.12-2.89v-82.9c0-1.16,0.37-2.13,1.12-2.89c0.75-0.76,1.69-1.14,2.84-1.14h7.58
			c1.15,0,2.09,0.38,2.84,1.14c0.75,0.76,1.12,1.72,1.12,2.89v82.9c0,1.17-0.37,2.13-1.12,2.89c-0.75,0.76-1.7,1.14-2.84,1.14h-7.58
			C1210.06,147.43,1209.11,147.05,1208.37,146.29z"/>
		<path class="st1" d="M1257.8,145.68c-4.77-2.33-8.55-5.51-11.37-9.53c-2.81-4.02-4.22-8.48-4.22-13.38c0-7.7,3.1-13.99,9.3-18.89
			s14.64-8.16,25.32-9.79l25.83-3.67v-5.07c0-12.01-6.83-18.01-20.5-18.01c-5.28,0-9.53,1.08-12.74,3.24
			c-3.22,2.16-5.57,4.69-7.06,7.61c-0.46,1.17-0.95,1.95-1.46,2.36c-0.52,0.41-1.23,0.61-2.15,0.61h-6.72
			c-1.03,0-1.92-0.38-2.67-1.14c-0.75-0.76-1.12-1.66-1.12-2.71c0-2.68,1.23-5.8,3.7-9.36c2.47-3.56,6.29-6.65,11.45-9.27
			c5.17-2.62,11.48-3.94,18.94-3.94c12.86,0,22.07,3.03,27.64,9.09c5.57,6.06,8.35,13.64,8.35,22.74v56.84
			c0,1.17-0.37,2.13-1.12,2.89c-0.75,0.76-1.7,1.14-2.84,1.14h-7.58c-1.15,0-2.07-0.38-2.76-1.14c-0.69-0.76-1.03-1.72-1.03-2.89
			v-7.7c-2.53,3.85-6.2,7.06-11.02,9.62c-4.82,2.56-11.02,3.85-18.6,3.85C1267.76,149.18,1262.56,148.01,1257.8,145.68z
			 M1295.43,128.89c4.82-5.01,7.23-12.3,7.23-21.86v-4.9l-20.15,2.97c-8.27,1.17-14.53,3.15-18.77,5.95
			c-4.25,2.8-6.37,6.3-6.37,10.49c0,4.78,1.92,8.45,5.77,11.02c3.85,2.57,8.41,3.85,13.69,3.85
			C1284.41,136.41,1290.61,133.91,1295.43,128.89z"/>
	</g>
	<g>
		<path class="st2" d="M258.67,350.5c-0.02,8.47,1.08,16.78,3.03,24.98c0.26,1.1,0.75,1.63,1.79,2
			c17.52,6.19,30.05,18.19,35.6,37.24c5.71,19.58,1.81,37.42-10.77,52.86c-8.47,10.4-19.34,16.56-32.01,18.81
			c-26.83,4.77-53.02-10.9-61.34-37.73c-6.88-22.21-1.69-41.66,13.8-58c3.45-3.64,7.43-6.54,11.73-8.9
			c0.84-0.46,1.17-1.06,1.32-1.97c1.12-7.17,1.65-14.39,1.53-21.65c-0.28-16.45-2.99-32.45-7.73-48.08
			c-0.34-1.12-0.89-1.92-1.78-2.63c-12.15-9.67-19.84-22.42-21.28-38.64c-2.11-23.8,7.23-41.78,26.03-54.19
			c7.97-5.26,16.83-7.84,26.21-8.01c20.66-0.39,36.99,8.37,48.69,26.75c0.45,0.71,1.02,1.16,1.7,1.56
			c11.27,6.5,23.29,9.77,36.08,9.36c11.54-0.37,22.47-3.44,32.67-9.33c0.63-0.36,1.19-0.77,1.61-1.45
			c9.66-15.58,23.19-24.7,40.51-26.51c22.06-2.3,40.01,6.17,52.55,25.97c13.06,20.62,10.67,48.57-5.22,66.75
			c-11.89,13.6-26.7,19.84-43.95,19.04c-13.72-0.64-25.71-6.12-35.75-16.3c-4.26-4.32-7.74-9.28-10.42-14.86
			c-0.43-0.89-0.96-1.36-1.86-1.67c-10.8-3.65-21.84-4.4-33.06-3.35c-11.16,1.04-21.98,3.72-32.51,7.79
			c-1.21,0.47-2.09,1.18-2.82,2.36c-6.6,10.63-15.59,18.05-26.75,22.45c-1.06,0.42-1.61,1.03-1.98,2.12
			C260.56,327.98,258.62,339.05,258.67,350.5z"/>
		<path class="st3" d="M336.47,299.98c20.79,0.82,37.17,10.02,47.99,29.47c4.14,7.44,6.35,15.62,6.51,24.31
			c0.43,22.95-9.26,39.73-27.5,51.16c-1.4,0.88-2.02,1.85-2.25,3.47c-1.4,9.78-1.7,19.59-0.98,29.46
			c0.95,13.03,3.35,25.74,6.99,38.21c0.52,1.77,1.32,3.07,2.75,4.22c10.64,8.61,17.67,19.81,20.12,33.94
			c3.13,18.01-1.18,33.99-12.73,47.42c-12.09,14.06-27.44,20.24-45.1,18.87c-18.09-1.4-32.41-10.37-42.55-26.66
			c-0.38-0.62-0.84-1.07-1.44-1.42c-11.83-6.86-24.45-10.16-37.91-9.42c-10.89,0.61-21.2,3.62-30.85,9.12
			c-0.91,0.52-1.59,1.2-2.18,2.12c-9.27,14.69-22.12,23.57-38.5,25.77c-21.99,2.95-40.18-4.88-53.28-24.25
			c-14.44-21.35-11.91-50.93,5.47-69.61c12.16-13.07,27.02-19.02,44.06-17.56c20.03,1.71,35.2,12.15,44.94,31.2
			c0.41,0.8,0.92,1.2,1.68,1.46c8.58,2.94,17.39,4,26.35,3.78c13.64-0.35,26.82-3.29,39.62-8.31c1.1-0.43,1.8-1.13,2.44-2.15
			c6.62-10.62,15.56-18.1,26.73-22.49c1.08-0.42,1.67-1.03,2.08-2.2c4.1-11.71,5.95-23.82,5.57-36.3c-0.23-7.52-1.31-14.92-3.1-22.2
			c-0.24-0.96-0.69-1.38-1.56-1.67c-14.22-4.81-25.41-13.87-32.19-28.19c-9.64-20.36-8-40.18,4.67-58.47
			c9.32-13.47,22.3-20.68,37.81-22.66C332.23,300.12,334.32,300.09,336.47,299.98z"/>
		<path class="st4" d="M166.33,608.7c7.9,0,15.66-1.21,23.31-3.26c1.09-0.29,1.61-0.82,1.97-1.99
			c5.78-18.73,16.96-32.16,34.71-38.07c19.12-6.36,36.33-1.68,50.79,13.09c12.21,12.48,17.5,28.21,16.69,46.18
			c-0.69,15.25-6.15,28.41-16.24,39.23c-19.6,21.04-50.85,21.46-71.07,1.06c-4.38-4.42-8.01-9.44-10.78-15.15
			c-0.54-1.11-1.24-1.5-2.29-1.69c-8.83-1.59-17.71-1.91-26.63-1.28c-13.04,0.92-25.74,3.66-38.16,7.97
			c-1.13,0.39-1.85,1.08-2.53,2.05c-8.36,12.01-19.27,19.81-33.15,22.27c-16.7,2.96-31.37-1.97-43.67-14.34
			C37.6,653,31.84,638.18,32.05,621.09c0.26-21.07,8.54-37.86,25.01-49.73c0.62-0.45,1.05-0.99,1.39-1.69
			c11.84-24.31,11.69-48.69,0.44-73.16c-0.59-1.27-1.42-2.19-2.53-3c-13.2-9.68-21.16-23.03-23.59-39.93
			c-2.72-18.98,1.78-35.92,13.91-50.14c10.83-12.7,24.5-18.79,40.6-17.92c13.02,0.7,24.16,6.3,33.34,16.12
			c9,9.62,14.24,21.32,15.76,34.87c1.73,15.44-1.51,29.61-9.83,42.37c-4.88,7.5-11.15,13.38-18.75,17.58
			c-0.99,0.55-1.48,1.26-1.8,2.35c-2.97,10.37-3.86,20.99-3.26,31.78c0.72,13.24,3.37,26.04,7.58,38.49
			c0.39,1.15,0.99,1.97,1.96,2.66c10.08,7.13,17.07,16.88,21.2,29.01c0.3,0.88,0.71,1.41,1.56,1.76c9.49,3.84,19.27,5.97,29.43,6.1
			C165.09,608.62,165.71,608.67,166.33,608.7z"/>
	</g>
	<g>
		<path class="st1" d="M1905.5,832.37c-0.69-0.76-1.03-1.72-1.03-2.89v-114.2c0-1.28,0.34-2.3,1.03-3.06
			c0.69-0.76,1.61-1.14,2.76-1.14h7.58c1.15,0,2.01,0.23,2.58,0.7c0.57,0.47,1.15,1.05,1.72,1.75l57.7,90.24v-88.5
			c0-1.28,0.37-2.3,1.12-3.06c0.75-0.76,1.69-1.14,2.84-1.14h7.75c1.26,0,2.27,0.38,3.01,1.14c0.75,0.76,1.12,1.78,1.12,3.06v114.03
			c0,1.17-0.37,2.16-1.12,2.97c-0.75,0.82-1.7,1.22-2.84,1.22h-7.75c-1.95,0-3.33-0.81-4.13-2.45l-57.7-89.37v87.8
			c0,1.17-0.37,2.13-1.12,2.89c-0.75,0.76-1.7,1.14-2.84,1.14h-7.92C1907.11,833.5,1906.19,833.13,1905.5,832.37z"/>
		<path class="st1" d="M2021.32,724.28c-0.75-0.76-1.12-1.72-1.12-2.89v-9.09c0-1.16,0.37-2.16,1.12-2.97
			c0.75-0.81,1.69-1.22,2.84-1.22h10.16c1.15,0,2.12,0.41,2.93,1.22c0.8,0.82,1.21,1.81,1.21,2.97v9.09c0,1.17-0.4,2.13-1.21,2.89
			c-0.8,0.76-1.78,1.14-2.93,1.14h-10.16C2023.02,725.42,2022.07,725.04,2021.32,724.28z M2022.7,832.37
			c-0.75-0.76-1.12-1.72-1.12-2.89v-82.9c0-1.16,0.37-2.13,1.12-2.89c0.75-0.76,1.69-1.14,2.84-1.14h7.58
			c1.15,0,2.09,0.38,2.84,1.14c0.75,0.76,1.12,1.72,1.12,2.89v82.9c0,1.17-0.37,2.13-1.12,2.89c-0.75,0.76-1.7,1.14-2.84,1.14h-7.58
			C2024.39,833.5,2023.45,833.13,2022.7,832.37z"/>
		<path class="st1" d="M2069.98,824.67c-6.89-7.05-10.51-16.93-10.85-29.64l-0.17-7l0.17-7c0.34-12.71,3.96-22.59,10.85-29.64
			c6.89-7.05,16.47-10.58,28.76-10.58c8.27,0,15.24,1.49,20.93,4.46c5.68,2.97,9.93,6.68,12.74,11.11
			c2.81,4.43,4.33,8.86,4.56,13.29c0.11,1.05-0.26,1.98-1.12,2.8c-0.86,0.82-1.81,1.22-2.84,1.22h-7.58c-1.15,0-2.01-0.26-2.58-0.79
			c-0.58-0.53-1.15-1.49-1.72-2.89c-2.07-5.71-4.91-9.76-8.53-12.16c-3.62-2.39-8.18-3.58-13.69-3.58c-7.23,0-12.98,2.27-17.22,6.82
			c-4.25,4.55-6.54,11.49-6.89,20.81l-0.17,6.12l0.17,6.12c0.34,9.33,2.64,16.26,6.89,20.81c4.25,4.55,9.99,6.82,17.22,6.82
			c5.62,0,10.22-1.19,13.78-3.58c3.56-2.39,6.37-6.44,8.44-12.16c0.57-1.4,1.15-2.36,1.72-2.89c0.57-0.52,1.43-0.79,2.58-0.79h7.58
			c1.03,0,1.98,0.41,2.84,1.22c0.86,0.82,1.23,1.75,1.12,2.8c-0.23,4.32-1.75,8.69-4.56,13.12c-2.81,4.43-7.06,8.16-12.74,11.19
			c-5.68,3.03-12.66,4.55-20.93,4.55C2086.45,835.25,2076.87,831.73,2069.98,824.67z"/>
		<path class="st1" d="M2166.85,831.75c-4.77-2.33-8.55-5.51-11.37-9.53c-2.81-4.02-4.22-8.48-4.22-13.38
			c0-7.69,3.1-13.99,9.3-18.89c6.2-4.9,14.64-8.16,25.32-9.79l25.83-3.67v-5.07c0-12.01-6.83-18.01-20.5-18.01
			c-5.28,0-9.53,1.08-12.74,3.24c-3.22,2.16-5.57,4.7-7.06,7.61c-0.46,1.17-0.95,1.95-1.46,2.36c-0.52,0.41-1.24,0.61-2.15,0.61
			h-6.72c-1.03,0-1.92-0.38-2.67-1.14c-0.75-0.76-1.12-1.66-1.12-2.71c0-2.68,1.23-5.8,3.7-9.36c2.47-3.56,6.29-6.65,11.45-9.27
			c5.17-2.62,11.48-3.93,18.95-3.93c12.86,0,22.07,3.03,27.64,9.09c5.57,6.06,8.35,13.64,8.35,22.74v56.84
			c0,1.17-0.37,2.13-1.12,2.89c-0.75,0.76-1.7,1.14-2.84,1.14h-7.58c-1.15,0-2.07-0.38-2.76-1.14c-0.69-0.76-1.03-1.72-1.03-2.89
			v-7.7c-2.53,3.85-6.2,7.06-11.02,9.62s-11.02,3.85-18.6,3.85C2176.81,835.25,2171.62,834.08,2166.85,831.75z M2204.48,814.96
			c4.82-5.01,7.23-12.3,7.23-21.86v-4.9l-20.15,2.97c-8.27,1.17-14.53,3.15-18.77,5.95c-4.25,2.8-6.37,6.3-6.37,10.49
			c0,4.78,1.92,8.46,5.77,11.02c3.85,2.57,8.41,3.85,13.69,3.85C2193.46,822.48,2199.66,819.98,2204.48,814.96z"/>
		<path class="st1" d="M2253.48,832.37c-0.75-0.76-1.12-1.72-1.12-2.89v-82.72c0-1.16,0.37-2.16,1.12-2.97
			c0.75-0.81,1.69-1.22,2.84-1.22h7.23c1.26,0,2.27,0.38,3.01,1.14c0.75,0.76,1.12,1.78,1.12,3.06v7.7
			c4.71-7.93,12.69-11.89,23.94-11.89h6.72c1.26,0,2.24,0.35,2.93,1.05c0.69,0.7,1.03,1.69,1.03,2.97v6.47
			c0,1.17-0.34,2.13-1.03,2.89c-0.69,0.76-1.67,1.14-2.93,1.14h-9.82c-6.32,0-11.28,1.87-14.9,5.6c-3.62,3.73-5.42,8.8-5.42,15.22
			v51.59c0,1.17-0.4,2.13-1.21,2.89c-0.8,0.76-1.78,1.14-2.93,1.14h-7.75C2255.17,833.5,2254.23,833.13,2253.48,832.37z"/>
		<path class="st1" d="M2324.95,831.75c-4.77-2.33-8.55-5.51-11.37-9.53c-2.81-4.02-4.22-8.48-4.22-13.38
			c0-7.69,3.1-13.99,9.3-18.89c6.2-4.9,14.64-8.16,25.32-9.79l25.83-3.67v-5.07c0-12.01-6.83-18.01-20.5-18.01
			c-5.28,0-9.53,1.08-12.74,3.24c-3.22,2.16-5.57,4.7-7.06,7.61c-0.46,1.17-0.95,1.95-1.46,2.36c-0.52,0.41-1.24,0.61-2.15,0.61
			h-6.72c-1.03,0-1.92-0.38-2.67-1.14c-0.75-0.76-1.12-1.66-1.12-2.71c0-2.68,1.23-5.8,3.7-9.36c2.47-3.56,6.29-6.65,11.45-9.27
			c5.17-2.62,11.48-3.93,18.95-3.93c12.86,0,22.07,3.03,27.64,9.09c5.57,6.06,8.35,13.64,8.35,22.74v56.84
			c0,1.17-0.37,2.13-1.12,2.89c-0.75,0.76-1.7,1.14-2.84,1.14h-7.58c-1.15,0-2.07-0.38-2.76-1.14c-0.69-0.76-1.03-1.72-1.03-2.89
			v-7.7c-2.53,3.85-6.2,7.06-11.02,9.62s-11.02,3.85-18.6,3.85C2334.91,835.25,2329.72,834.08,2324.95,831.75z M2362.58,814.96
			c4.82-5.01,7.23-12.3,7.23-21.86v-4.9l-20.15,2.97c-8.27,1.17-14.53,3.15-18.77,5.95c-4.25,2.8-6.37,6.3-6.37,10.49
			c0,4.78,1.92,8.46,5.77,11.02c3.85,2.57,8.41,3.85,13.69,3.85C2351.56,822.48,2357.76,819.98,2362.58,814.96z"/>
		<path class="st1" d="M2423.9,867.08c-5.74-3.27-9.79-7-12.14-11.19c-2.35-4.2-3.53-7.81-3.53-10.84c0-1.05,0.4-1.95,1.21-2.71
			c0.8-0.76,1.72-1.14,2.76-1.14h7.58c1.03,0,1.89,0.26,2.58,0.79c0.69,0.52,1.26,1.49,1.72,2.89c3.21,9.33,10.51,13.99,21.87,13.99
			c8.61,0,14.98-1.87,19.12-5.6c4.13-3.73,6.2-10.32,6.2-19.76v-12.07c-6.66,8.63-15.96,12.94-27.9,12.94
			c-12.17,0-21.27-3.96-27.3-11.89c-6.03-7.93-9.21-17.95-9.56-30.08l-0.17-4.9l0.17-4.72c0.34-12.01,3.53-22.01,9.56-29.99
			c6.03-7.98,15.13-11.98,27.3-11.98c12.06,0,21.47,4.49,28.25,13.47v-7.52c0-1.16,0.37-2.16,1.12-2.97
			c0.75-0.81,1.69-1.22,2.84-1.22h7.41c1.15,0,2.09,0.41,2.84,1.22c0.75,0.82,1.12,1.81,1.12,2.97v84.82
			c0,26.93-13.38,40.4-40.13,40.4C2437.27,871.98,2429.64,870.34,2423.9,867.08z M2464.63,812.78c4.07-5.3,6.29-11.69,6.63-19.15
			c0.11-1.05,0.17-3.09,0.17-6.12c0-2.91-0.06-4.9-0.17-5.95c-0.34-7.46-2.56-13.84-6.63-19.15c-4.08-5.3-10.13-7.96-18.17-7.96
			c-8.27,0-14.27,2.65-18,7.96c-3.73,5.31-5.77,12.16-6.11,20.55l-0.17,4.55l0.17,4.72c0.34,8.39,2.38,15.25,6.11,20.55
			c3.73,5.31,9.73,7.96,18,7.96C2454.49,820.74,2460.55,818.08,2464.63,812.78z"/>
		<path class="st1" d="M2521.03,824.5c-5.97-7.17-8.96-16.7-8.96-28.59v-49.32c0-1.16,0.37-2.13,1.12-2.89
			c0.75-0.76,1.69-1.14,2.84-1.14h7.92c1.15,0,2.09,0.38,2.84,1.14c0.75,0.76,1.12,1.72,1.12,2.89v48.44
			c0,17.72,7.58,26.58,22.73,26.58c7.35,0,13.17-2.36,17.48-7.08c4.31-4.72,6.46-11.22,6.46-19.5v-48.44c0-1.16,0.37-2.13,1.12-2.89
			c0.75-0.76,1.69-1.14,2.84-1.14h7.92c1.15,0,2.09,0.38,2.84,1.14c0.75,0.76,1.12,1.72,1.12,2.89v82.9c0,1.17-0.37,2.13-1.12,2.89
			c-0.75,0.76-1.7,1.14-2.84,1.14h-7.41c-1.15,0-2.1-0.38-2.84-1.14c-0.75-0.76-1.12-1.72-1.12-2.89v-7.87
			c-3.33,4.55-7.23,7.96-11.71,10.23c-4.48,2.27-10.16,3.41-17.05,3.41C2535.44,835.25,2527,831.67,2521.03,824.5z"/>
		<path class="st1" d="M2625.48,831.75c-4.77-2.33-8.55-5.51-11.37-9.53c-2.81-4.02-4.22-8.48-4.22-13.38
			c0-7.69,3.1-13.99,9.3-18.89c6.2-4.9,14.64-8.16,25.32-9.79l25.83-3.67v-5.07c0-12.01-6.83-18.01-20.5-18.01
			c-5.28,0-9.53,1.08-12.74,3.24c-3.22,2.16-5.57,4.7-7.06,7.61c-0.46,1.17-0.95,1.95-1.46,2.36c-0.52,0.41-1.24,0.61-2.15,0.61
			h-6.72c-1.03,0-1.92-0.38-2.67-1.14c-0.75-0.76-1.12-1.66-1.12-2.71c0-2.68,1.23-5.8,3.7-9.36c2.47-3.56,6.29-6.65,11.45-9.27
			c5.17-2.62,11.48-3.93,18.95-3.93c12.86,0,22.07,3.03,27.64,9.09c5.57,6.06,8.35,13.64,8.35,22.74v56.84
			c0,1.17-0.37,2.13-1.12,2.89c-0.75,0.76-1.7,1.14-2.84,1.14h-7.58c-1.15,0-2.07-0.38-2.76-1.14c-0.69-0.76-1.03-1.72-1.03-2.89
			v-7.7c-2.53,3.85-6.2,7.06-11.02,9.62s-11.02,3.85-18.6,3.85C2635.44,835.25,2630.25,834.08,2625.48,831.75z M2663.11,814.96
			c4.82-5.01,7.23-12.3,7.23-21.86v-4.9l-20.15,2.97c-8.27,1.17-14.53,3.15-18.77,5.95c-4.25,2.8-6.37,6.3-6.37,10.49
			c0,4.78,1.92,8.46,5.77,11.02c3.85,2.57,8.41,3.85,13.69,3.85C2652.09,822.48,2658.29,819.98,2663.11,814.96z"/>
	</g>
</g>
<g>
</g>
<g>
</g>
<g>
</g>
<g>
</g>
<g>
</g>
<g>
</g>
<g>
</g>
<g>
</g>
<g>
</g>
<g>
</g>
<g>
</g>
<g>
</g>
<g>
</g>
<g>
</g>
<g>
</g>
</svg>
